<svg xmlns="http://www.w3.org/2000/svg" fill="none" viewBox="0 0 125 76">
  <path fill="#fff" d="M29.7 19.7h23.4v1.8H32v14h20v2H32v15.3h21.5v1.9H29.7v-35Zm25.5 0h2.5l11 15.4L80 19.7 95.3 0 70.2 36.7l13 18h-2.7L68.7 38.3 57 54.7h-2.5l13-18-12.2-17ZM84 21.5v-1.8h26.7v1.8H98.4v33.2h-2.1V21.5H84ZM.5 19.7h2.7l37 55.4-15.4-20.4-22-32.4-.2 32.4H.5v-35Zm110 32.5a.8.8 0 0 1-.8-.7c0-.5.4-.8.8-.8s.8.3.8.8c0 .4-.4.7-.8.7Zm2.1-2h1.1c0 .6.5 1 1.2 1s1.2-.4 1.2-1.3v-5.3h1.1V50c0 1.6-.9 2.4-2.3 2.4s-2.3-.8-2.3-2.1Zm6.1 0h1.2c.1.6.8 1.1 1.8 1.1s1.6-.5 1.6-1.2c0-.5-.4-.9-1.4-1.1l-1-.2c-1.3-.4-2-1-2-2.1 0-1.4 1.1-2.3 2.8-2.3 1.5 0 2.6 1 2.7 2.2h-1.1c-.1-.7-.7-1.1-1.6-1.1-1 0-1.6.4-1.6 1s.4 1 1.4 1.2l.8.2c1.6.3 2.2 1 2.2 2 0 1.5-1 2.4-2.9 2.4-1.6 0-2.8-.8-2.9-2.2Z"/>
</svg>