<svg xmlns="http://www.w3.org/2000/svg" fill="none" viewBox="0 0 201 56">
  <path fill="#fff" fill-rule="evenodd" d="M49.6 17.2c7.9 2.5 13 6.4 13 10.5 0 4-5 8-13 10.4 1.9 8 1.1 14.4-2.5 16.5-.8.5-1.8.7-2.8.7-3.5 0-8-2.5-12.7-6.7-4.6 4.3-9.2 6.8-12.6 6.8-1.1 0-2-.3-2.9-.8-3.6-2-4.4-8.4-2.6-16.5-7.9-2.4-13-6.3-13-10.4 0-4.1 5.1-8 13-10.4-1.8-8-1-14.5 2.5-16.5 1-.5 1.8-.8 3-.8 3.5 0 8 2.4 12.6 6.7C36.2 2.5 40.7 0 44.2 0c1 0 2 .2 2.8.7 3.6 2 4.4 8.5 2.6 16.5ZM44.2 2.8c-2.6 0-6.5 2.1-10.6 6 1.7 1.8 3.5 4 5.2 6.3 2.9.3 5.6.8 8 1.4.4-1.3.6-2.5.7-3.7.6-4.9-.1-8.6-1.9-9.6a3 3 0 0 0-1.4-.4Zm-14.7 6c-4.1-3.8-8-6-10.6-6-.6 0-1 .2-1.5.4-1.7 1-2.4 4.8-1.8 9.6l.6 3.7c2.5-.6 5.2-1 8-1.4a92 92 0 0 1 5.3-6.3Zm15 15.4a57 57 0 0 0 1.7-5l-5.2-1a68.5 68.5 0 0 1 3.4 6Zm-4.2 8.5-3 4.9a65.9 65.9 0 0 1-11.4 0 69.8 69.8 0 0 1-5.7-9.9 66 66 0 0 1 5.6-9.9 66 66 0 0 1 11.5 0 69.9 69.9 0 0 1 5.7 9.9 71 71 0 0 1-2.7 5Zm5.9 3.4c-.5-1.6-1-3.3-1.8-5a72 72 0 0 1-3.4 6c1.8-.2 3.5-.6 5.2-1Zm-14.6 8.5a52.3 52.3 0 0 1-3.5-4 78.4 78.4 0 0 0 7 0 49.5 49.5 0 0 1-3.5 4ZM17 36.1c1.6.4 3.4.8 5.2 1a84.1 84.1 0 0 1-3.5-6 57 57 0 0 0-1.7 5Zm14.5-25.3a48 48 0 0 1 3.6 4 78.6 78.6 0 0 0-7 0c1-1.5 2.3-2.8 3.4-4ZM20.3 21.2l1.9-3-5.3 1c.5 1.7 1.1 3.4 1.8 5l1.6-3Zm-9.6 12.9c-4.5-2-7.4-4.4-7.4-6.4s2.9-4.5 7.4-6.4c1-.5 2.3-1 3.5-1.3.7 2.5 1.7 5 2.8 7.7a60 60 0 0 0-2.8 7.7L10.7 34Zm5 8.5c-.7 4.9 0 8.6 1.8 9.6.4.2.9.3 1.4.3 2.7 0 6.5-2 10.7-5.9-1.8-1.9-3.6-4-5.3-6.3-2.8-.3-5.6-.8-8-1.4a39 39 0 0 0-.7 3.7Zm31.9 0c.6 4.8-.2 8.6-1.9 9.6-.4.2-.9.3-1.5.3-2.6 0-6.5-2.1-10.6-6a46 46 0 0 0 5.2-6.2 62 62 0 0 0 8.1-1.4l.7 3.6Zm1.3-7.2a39 39 0 0 0 3.5-1.3c4.5-1.9 7.4-4.4 7.4-6.4s-2.9-4.5-7.4-6.4c-1-.5-2.3-1-3.5-1.3a60 60 0 0 1-2.8 7.7c1.2 2.6 2.1 5.2 2.8 7.7Z" clip-rule="evenodd"/>
  <circle cx="31.6" cy="27.7" r="5.8" fill="#fff"/>
  <path fill="#fff" d="M83.6 44.8v-32h12c2.5 0 4.5.5 6.2 1.4 1.7.8 3 2 3.8 3.5a12 12 0 0 1 1.3 5.4c0 2-.5 3.8-1.3 5.3a8.6 8.6 0 0 1-3.9 3.5 14 14 0 0 1-6.2 1.2H87v-4.8h7.8a9 9 0 0 0 3.5-.6c.9-.4 1.6-1 2-1.7.5-.8.7-1.8.7-3 0-1-.2-2-.7-2.8a4.3 4.3 0 0 0-2-1.8c-1-.5-2.1-.7-3.6-.7h-5.3v27h-5.8Zm16.5-14.5 8 14.5h-6.5l-7.8-14.5h6.3Zm22.1 15c-2.4 0-4.5-.5-6.2-1.5a9.8 9.8 0 0 1-4-4.3c-1-1.9-1.4-4-1.4-6.5s.4-4.7 1.4-6.5a10.6 10.6 0 0 1 9.9-6 11.6 11.6 0 0 1 7.7 2.9c1 1 1.8 2.3 2.4 3.8.5 1.5.8 3.3.8 5.4v1.8h-19.6v-3.8h14.2c0-1.1-.2-2-.7-3a5.1 5.1 0 0 0-1.9-2c-.8-.4-1.7-.7-2.8-.7-1.2 0-2.2.3-3 .9a5 5 0 0 0-2.1 2.2c-.5.9-.7 1.8-.7 3v3.2a8 8 0 0 0 .7 3.6 5 5 0 0 0 2.2 2.3 6.6 6.6 0 0 0 5.4.4 5 5 0 0 0 1.7-1c.5-.5.9-1 1.1-1.7l5.3.6c-.3 1.4-1 2.6-1.9 3.6-1 1-2.1 1.8-3.6 2.4-1.4.6-3 .9-5 .9Zm22.3 0a10 10 0 0 1-4.1-.8 6.7 6.7 0 0 1-2.9-2.5 7 7 0 0 1-1-4c0-1.3.2-2.4.7-3.3.5-.9 1.2-1.6 2-2 1-.6 2-1 3-1.3 1-.3 2.2-.5 3.4-.6l3.4-.4a5 5 0 0 0 1.9-.5c.4-.3.6-.7.6-1.2v-.1c0-1.2-.4-2.1-1-2.8a5 5 0 0 0-3-1c-1.4 0-2.5.4-3.3 1-.8.6-1.4 1.3-1.7 2.1l-5.2-.7a8.4 8.4 0 0 1 5.5-5.9 15 15 0 0 1 8-.3 9 9 0 0 1 3.2 1.3c1 .6 1.7 1.4 2.3 2.5.5 1 .8 2.4.8 4v16h-5.4v-3.3h-.2a6.9 6.9 0 0 1-3.8 3.3c-.9.3-2 .5-3.2.5ZM146 41c1 0 2-.2 2.9-.6a5 5 0 0 0 2-1.8c.4-.8.6-1.6.6-2.5v-2.8l-.9.4-1.4.3a43.4 43.4 0 0 1-2.9.5c-.8 0-1.6.3-2.2.5-.7.3-1.2.6-1.6 1.1-.4.5-.6 1-.6 1.8 0 1 .4 1.8 1.2 2.3a5 5 0 0 0 2.9.8Zm27.2 4.3a10.7 10.7 0 0 1-10.1-6c-.9-1.8-1.3-4-1.3-6.4 0-2.4.4-4.6 1.4-6.4a10.6 10.6 0 0 1 10-6c2 0 3.7.4 5.2 1.1a8.8 8.8 0 0 1 5 7.5h-5.3a5.2 5.2 0 0 0-1.6-2.8 4.5 4.5 0 0 0-3.2-1.2 5 5 0 0 0-3 1 6 6 0 0 0-2 2.6 8.6 8.6 0 0 0-.8 4.1c0 1.7.2 3 .7 4.2a6.4 6.4 0 0 0 2 2.7c.9.7 2 1 3 1a4.9 4.9 0 0 0 4-1.9c.4-.6.7-1.3.9-2.2h5.4a8.9 8.9 0 0 1-5 7.6c-1.5.7-3.3 1-5.3 1ZM200 20.9v4.3h-13.7V21h13.8ZM189.8 15h5.7v22.5c0 .8 0 1.3.3 1.7.2.4.6.7 1 .9l1.2.2a5.5 5.5 0 0 0 1.7-.2l1 4.4a12.5 12.5 0 0 1-3.4.5c-1.4 0-2.7-.2-3.8-.6a6 6 0 0 1-2.7-2.2c-.7-1-1-2.3-1-3.8V15.1Z"/>
</svg>