<svg xmlns="http://www.w3.org/2000/svg" fill="none" viewBox="0 0 221 55">
  <path fill="#fff" d="M20.5 2.7A16.5 16.5 0 0 1 45 13a14.8 14.8 0 0 1-2 11.5c1.5 3 2 6.3 1.4 9.7a14.4 14.4 0 0 1-6.5 9.6l-12.5 8A16.5 16.5 0 0 1 .9 41.4a15.3 15.3 0 0 1 2-11.5 15.2 15.2 0 0 1 .7-15.2c1.1-1.6 2.6-3 4.3-4.1l12.6-8Zm-7.2 44.8c1.9.7 4 .8 6 .3a9 9 0 0 0 2.5-1.1l12.5-8a8.7 8.7 0 0 0 4-5.8 9.2 9.2 0 0 0-1.6-7 10 10 0 0 0-10.7-4c-.9.3-1.7.7-2.5 1.2l-4.8 3a3 3 0 0 1-.8.3 3 3 0 0 1-3.6-2.2V23a2.6 2.6 0 0 1 1.1-1.8l12.6-8a3 3 0 0 1 4 .9c.3.5.5 1.2.4 1.9v.5h.4c1.8.6 3.4 1.4 5 2.5l.6.4.2-.7.3-1.1a9.2 9.2 0 0 0-1.6-7 10 10 0 0 0-10.7-4c-.9.3-1.7.6-2.5 1.1l-12.6 8a8.6 8.6 0 0 0-3.9 5.8 9.2 9.2 0 0 0 1.5 7 10 10 0 0 0 13.2 2.8l4.8-3 .8-.3a3 3 0 0 1 3.7 2.2 2.7 2.7 0 0 1-.4 2.1c-.2.3-.5.6-.8.7l-12.5 8-.8.4a3 3 0 0 1-3.7-3v-.6h-.5A19 19 0 0 1 8 35.3l-.6-.5-.3.7-.3 1.2a9.2 9.2 0 0 0 1.6 7 10 10 0 0 0 4.9 3.7ZM72.5 42c-2.6 0-4.8-.6-6.6-1.8a9.6 9.6 0 0 1-3.8-5.1l4-1.5a7 7 0 0 0 6.6 4.3c1.5 0 2.7-.4 3.7-1.1a4 4 0 0 0 1.4-3.3 3 3 0 0 0-.4-1.6c-.3-.5-.5-1-.9-1.3l-1.5-1-1.7-.7-2-.8a64.5 64.5 0 0 1-4.5-2c-1-.5-1.6-1-2-1.4a8 8 0 0 1-1.2-2 6.8 6.8 0 0 1 2-8 9.7 9.7 0 0 1 6.5-2.2c2.4 0 4.3.5 5.8 1.5s2.5 2.4 3 4.1L77 19.4c-.4-.8-1-1.5-1.9-2-.9-.6-2-.9-3.3-.9-1.4 0-2.4.3-3.2 1a3 3 0 0 0-1.2 2.5c0 .7.3 1.4 1 2 .5.5 1.2 1 1.8 1.2A56.9 56.9 0 0 0 75 25a18.3 18.3 0 0 1 3.5 1.7l1.4 1.1c.6.5 1 1 1.2 1.5a8.5 8.5 0 0 1 1.1 4.2c0 2.6-1 4.7-2.7 6.3a10.7 10.7 0 0 1-7 2.2Zm26.1-.5L89 13h4.5l6.5 20 .9 3.2.9-3.2 6.4-20h4.5L103 41.6h-4.3Zm22.6-.2V12.7H139v4h-13.5v7.9h8.7v4h-8.7v8.7h14.4v4h-18.6Zm29.5.2V13h4.2v24.5h14v4.1h-18.2ZM185.1 17v24.5H181V17h-8v-4h20.3v4h-8ZM202 41.5V13h17.6v4h-13.4v7.9h8.6v4h-8.6v8.7h14.3v4h-18.6Z"/>
</svg>