<svg xmlns="http://www.w3.org/2000/svg" fill="none" viewBox="0 0 181 66">
  <path fill="#fff" fill-rule="evenodd" d="M48 0h29L39 66 1 0h30l8 15 9-15ZM19 6h-9l29 49L67 6h-9L39 39 19 6Zm66 7-1 1 10 31 2 2 2-2 10-31-1-1-1-1-2 1-8 28-8-28-2-1-1 1Zm23 13v12l3 6c2 2 4 3 7 3l6-3 3-6V26l-1-1-1-1-1 1-1 1v12l-2 4-3 1-4-1-2-4V25l-2-1-1 1-1 1Zm22 7v5c0 2 1 5 3 6 2 2 4 3 7 3l6-1 2-3-1-1h-2l-2 1h-2l-5-1-2-4v-2h13l1-1v-2l-2-6c-2-2-4-3-7-3l-6 3c-2 1-3 3-3 6Zm13 1h-9v-2l1-3 4-2 4 2 2 3-1 2h-1Zm8 8-1 2 1 2 2 1 1-1 1-2-1-2h-3Zm3 12v1c0 1 0 2 2 2l5-2 1-7V25l-2-1-1 1-1 1v26c-1 1-1 2-3 2h-1Zm4-39a2 2 0 0 0 0 3h4l1-2-1-1-2-1-2 1Zm7 27v1l2 3 6 1 5-2 3-4a6 6 0 0 0-5-6l-3-1-3-2-1-2 1-2 3-1 4 1 1 1 1-1 1-1-2-2-5-1-6 2-1 5 1 3c1 1 1 2 3 2l3 1 3 1 1 3-1 2-3 1a8 8 0 0 1-6-2l-1-1-1 1Z" clip-rule="evenodd"/>
</svg>