<svg xmlns="http://www.w3.org/2000/svg" fill="none" viewBox="0 0 1512 228">
  <rect width="320" height="57" x="72" y="57" fill="#D12510" opacity=".6" rx="7"/>
  <rect width="320" height="57" x="-248" y="171" fill="#D12510" opacity=".2" rx="7"/>
  <rect width="320" height="57" x="1352" y="170" fill="#D12510" opacity=".2" rx="7"/>
  <rect width="320" height="57" x="552" y="114" fill="#97B1B2" opacity=".3" rx="7"/>
  <rect width="320" height="57" x="1032" y="171" fill="#97B1B2" opacity=".3" rx="7"/>
  <rect width="320" height="57" x="392" y="57" fill="#FEC05C" opacity=".6" rx="7"/>
  <rect width="320" height="57" x="712" y="171" fill="#FEC05C" opacity=".2" rx="7"/>
  <rect width="320" height="57" x="72" y="171" fill="#FEC05C" opacity=".2" rx="7"/>
  <rect width="320" height="57" x="872" fill="#FEC05C" rx="7"/>
  <rect width="320" height="57" x="1192" y="114" fill="#FEC05C" opacity=".3" rx="7"/>
  <rect width="320" height="57" x="1032" y="57" fill="#D12510" opacity=".6" rx="7"/>
  <rect width="320" height="57" x="872" y="114" fill="#0165B1" opacity=".3" rx="7"/>
  <rect width="320" height="57" x="232" y="114" fill="#0165B1" opacity=".3" rx="7"/>
  <rect width="320" height="57" x="552" fill="#0165B1" rx="7"/>
  <rect width="320" height="57" x="712" y="57" fill="#000" opacity=".6" rx="7"/>
  <rect width="320" height="57" x="-88" y="114" fill="#000" opacity=".3" rx="7"/>
  <rect width="320" height="57" x="392" y="171" fill="#000" opacity=".2" rx="7"/>
</svg>