<svg
	width="83"
	height="582"
	viewBox="0 0 83 582"
	fill="none"
	xmlns="http://www.w3.org/2000/svg"
	class="ml-40"
>
	<path
		id="mouse"
		d="M49.807 54.3111L53.2334 51.3939C57.9983 47.3373 58.5177 40.2464 54.5066 35.535L45.7552 25.2558C41.6986 20.4909 34.6612 19.926 29.8963 23.9826L26.4699 26.8997C21.7586 30.9108 21.1401 37.9938 25.1967 42.7586L33.9481 53.0379C37.9592 57.7492 45.0957 58.3221 49.807 54.3111ZM42.5142 45.745C41.6937 44.7813 41.8587 43.3481 42.7688 42.5732C43.7325 41.7528 45.1201 41.8642 45.9406 42.8279L47.3992 44.5411C48.2196 45.5048 48.1082 46.8924 47.1445 47.7129C46.2344 48.4877 44.7932 48.4219 43.9727 47.4582L42.5142 45.745"
		fill="currentColor"
	>
		<animateMotion dur="10s" repeatCount="1" begin="indefinite" fill="freeze"></animateMotion>
	</path>
	<path
		id="mouse-arrow-path"
		d="M39 38C56.1667 55.6667 83.1909 95.0033 81.5 188C80.5 243 8.5 367 2.00002 435C-4.09153 498.727 27 556.5 43.5 580"
		stroke="currentColor"
		stroke-dasharray="4 4"></path>
	<path
		id="mouse-arrow-head"
		fill-rule="evenodd"
		clip-rule="evenodd"
		d="M43.022 579.804L51.4336 548.411L52.3996 548.67L43.7291 581.028L11.3706 572.358L11.6294 571.392L43.022 579.804Z"
		fill="currentColor"></path>
</svg>
